<?xml version="1.0" encoding="iso-8859-1"?>
<!-- Generator: Adobe Illustrator 19.0.0, SVG Export Plug-In . SVG Version: 6.00 Build 0)  -->
<svg version="1.1" id="Layer_1" xmlns="http://www.w3.org/2000/svg" xmlns:xlink="http://www.w3.org/1999/xlink" x="0px" y="0px"
	 viewBox="0 0 512.001 512.001" style="enable-background:new 0 0 512.001 512.001;" xml:space="preserve">
<g>
	<g>
		<g>
			<polygon points="378.303,384.064 362.549,384.064 362.549,392.194 138.185,392.194 138.185,384.064 122.43,384.064 
				122.43,407.949 378.303,407.949 			"/>
			<rect x="274.378" y="264.127" width="16.007" height="15.754"/>
			
				<rect x="154.457" y="132.628" transform="matrix(-0.7071 -0.7071 0.7071 -0.7071 175.3342 360.5207)" width="15.754" height="22.638"/>
			
				<rect x="186.477" y="132.626" transform="matrix(-0.7071 -0.7071 0.7071 -0.7071 229.9997 383.1585)" width="15.754" height="22.638"/>
			
				<rect x="218.491" y="132.616" transform="matrix(-0.7071 -0.7071 0.7071 -0.7071 284.657 405.7784)" width="15.754" height="22.638"/>
			
				<rect x="250.512" y="132.624" transform="matrix(-0.7071 -0.7071 0.7071 -0.7071 339.3143 428.4342)" width="15.754" height="22.638"/>
			<rect x="210.352" y="40.016" width="16.008" height="15.754"/>
			<rect x="242.365" y="40.016" width="16.008" height="15.754"/>
			<rect x="274.378" y="40.016" width="16.007" height="15.754"/>
			<path d="M138.438,432.215H58.399v24.671c-22.675,3.769-40.02,23.511-40.02,47.238v7.877h95.794v-7.877
				c0-23.727-17.346-43.468-40.02-47.238v-8.917h80.039V416.08h-15.754V432.215z M97.442,496.246H35.11
				c3.522-13.929,16.159-24.266,31.166-24.266C81.284,471.98,93.921,482.318,97.442,496.246z"/>
			<path d="M258.244,456.885v-40.806H242.49v40.806c-22.674,3.769-40.02,23.511-40.02,47.238V512h95.794v-7.877
				C298.264,480.397,280.918,460.654,258.244,456.885z M219.201,496.246c3.522-13.929,16.159-24.266,31.166-24.266
				c15.008,0,27.645,10.337,31.166,24.266H219.201z"/>
			<path d="M442.335,456.885v-24.671h-80.04v-16.135h-15.754v31.889h80.039v8.917c-22.675,3.769-40.02,23.511-40.02,47.238V512
				h95.794v-7.877C482.356,480.397,465.009,460.654,442.335,456.885z M403.292,496.246c3.522-13.929,16.159-24.266,31.166-24.266
				s27.645,10.337,31.166,24.266H403.292z"/>
			<path d="M459.664,73.851l12.38-12.38l-11.14-11.139l-12.38,12.38l-33.957-33.958l-5.571,5.57
				c-10.559,10.559-16.373,24.596-16.373,39.528c0,13.801,4.976,26.833,14.067,37.065v41.159h-28.385v-24.139
				C378.303,57.392,320.912,0,250.367,0S122.43,57.392,122.43,127.937v247.997h255.873V167.829h44.14v-44.51
				c7.943,4.201,16.839,6.433,26.081,6.433c14.932,0,28.97-5.815,39.529-16.373l5.57-5.57L459.664,73.851z M138.185,127.937
				c0-2.735,0.104-5.445,0.296-8.13h152.033v48.278H138.185V127.937z M362.55,360.178h-0.001H138.185v-56.281h112.968
				c3.768,22.675,23.511,40.02,47.239,40.02c23.727,0,43.468-17.346,47.239-40.02h16.919V360.178z M266.248,296.02v-48.024
				c0-17.724,14.419-32.143,32.143-32.143c17.724,0,32.143,14.419,32.143,32.143v48.024c0,17.724-14.419,32.143-32.143,32.143
				h-0.001C280.667,328.162,266.248,313.744,266.248,296.02z M362.55,288.143h-0.001h-16.261v-40.146
				c0-26.411-21.487-47.897-47.897-47.897c-26.411,0-47.897,21.487-47.897,47.897v40.146H138.185V183.838h168.083v-79.786H140.753
				c3.941-18.101,12.261-34.583,23.795-48.278h29.79V40.019h-13.573c19.141-15.184,43.329-24.265,69.602-24.265
				c26.273,0,50.461,9.081,69.601,24.266h-13.573v15.754h29.79c16.441,19.521,26.364,44.704,26.364,72.162V288.143z
				 M448.525,113.999c-10.723,0-20.806-4.176-28.387-11.759c-7.583-7.583-11.759-17.665-11.759-28.388
				c0-8.048,2.352-15.734,6.731-22.275l55.691,55.69C464.259,111.646,456.573,113.999,448.525,113.999z"/>
			<rect x="154.319" y="264.127" width="16.008" height="15.754"/>
			<rect x="186.332" y="264.127" width="16.008" height="15.754"/>
			<rect x="218.355" y="264.127" width="16.008" height="15.754"/>
			<path d="M154.446,351.921h79.786v-39.766h-79.786V351.921z M170.201,327.909h48.278v8.257h-48.278V327.909z"/>
		</g>
	</g>
</g>
<g>
</g>
<g>
</g>
<g>
</g>
<g>
</g>
<g>
</g>
<g>
</g>
<g>
</g>
<g>
</g>
<g>
</g>
<g>
</g>
<g>
</g>
<g>
</g>
<g>
</g>
<g>
</g>
<g>
</g>
</svg>
